SplineFontDB: 3.2
FontName: Untitled1
FullName: Untitled1
FamilyName: Untitled1
Weight: Regular
Copyright: Copyright (c) 2023, neilb
UComments: "2023-2-8: Created with FontForge (http://fontforge.org)"
Version: 001.000
ItalicAngle: 0
UnderlinePosition: -100
UnderlineWidth: 50
Ascent: 800
Descent: 200
InvalidEm: 0
LayerCount: 2
Layer: 0 0 "Back" 1
Layer: 1 0 "Fore" 0
XUID: [1021 709 80515229 13340]
StyleMap: 0x0000
FSType: 0
OS2Version: 0
OS2_WeightWidthSlopeOnly: 0
OS2_UseTypoMetrics: 1
CreationTime: 1675857821
ModificationTime: 1675929753
PfmFamily: 17
TTFWeight: 400
TTFWidth: 5
LineGap: 90
VLineGap: 90
OS2TypoAscent: 0
OS2TypoAOffset: 1
OS2TypoDescent: 0
OS2TypoDOffset: 1
OS2TypoLinegap: 400
OS2WinAscent: 0
OS2WinAOffset: 1
OS2WinDescent: 0
OS2WinDOffset: 1
HheadAscent: 0
HheadAOffset: 1
HheadDescent: 0
HheadDOffset: 1
OS2Vendor: 'PfEd'
MarkAttachClasses: 1
DEI: 91125
Encoding: UnicodeFull
UnicodeInterp: none
NameList: AGL For New Fonts
DisplaySize: -48
AntiAlias: 1
FitToEm: 1
WinInfo: 16 16 14
BeginPrivate: 0
EndPrivate
BeginChars: 1114123 70

StartChar: .notdef
Encoding: 1114112 -1 0
Width: 755
VWidth: 0
Flags: HMW
LayerCount: 2
Fore
SplineSet
117 862 m 2
 638 862 l 2
 658 862 675 845 675 825 c 2
 675 37 l 2
 675 17 658 0 638 0 c 2
 117 0 l 2
 97 0 80 17 80 37 c 2
 80 825 l 2
 80 845 97 862 117 862 c 2
175 788 m 1
 378 482 l 1
 580 788 l 1
 175 788 l 1
154 718 m 1
 154 144 l 1
 344 431 l 1
 154 718 l 1
601 718 m 1
 411 431 l 1
 601 144 l 1
 601 718 l 1
378 380 m 1
 175 74 l 1
 580 74 l 1
 378 380 l 1
EndSplineSet
EndChar

StartChar: age
Encoding: 58995 58995 1
Width: 530
Flags: MW
LayerCount: 2
Fore
SplineSet
31 475 m 0
 31 495 46 512 68 512 c 0
 85 512 100 501 104 485 c 0
 116 440 138 408 165 385 c 1
 170 420 180 446 194 467 c 0
 218 501 256 512 282 512 c 0
 349 512 404 458 404 388 c 0
 404 318 349 264 282 264 c 0
 267 264 252 266 236 269 c 1
 251 144 349 79 467 62 c 0
 485 59 499 44 499 25 c 0
 499 4 482 -12 462 -12 c 0
 460 -12 459 -12 457 -12 c 0
 383 -2 309 27 253 79 c 0
 198 130 162 205 160 299 c 1
 102 332 54 384 32 465 c 0
 31 468 31 472 31 475 c 0
330 388 m 0
 330 419 309 438 282 438 c 0
 281 438 281 438 280 438 c 0
 268 438 264 438 255 425 c 0
 248 414 238 390 235 346 c 1
 253 340 269 338 282 338 c 0
 308 338 330 357 330 388 c 0
EndSplineSet
EndChar

StartChar: age_roar
Encoding: 1114113 -1 2
Width: 0
VWidth: 0
Flags: M
LayerCount: 2
Fore
SplineSet
588 475 m 0
 588 509 620 514 655 514 c 0
 800 514 899 405 899 250 c 0
 899 83 788 -14 626 -14 c 0
 611 -14 595 -14 580 -12 c 0
 487 -2 402 25 340 78 c 0
 279 129 242 205 240 299 c 1
 182 332 134 384 112 465 c 0
 111 468 111 472 111 475 c 0
 111 495 126 512 148 512 c 0
 165 512 180 501 184 485 c 0
 196 440 218 408 245 385 c 1
 250 420 261 446 275 467 c 0
 299 501 336 512 362 512 c 0
 429 512 484 458 484 388 c 0
 484 318 429 264 362 264 c 0
 347 264 332 266 316 269 c 1
 323 209 349 167 388 134 c 0
 435 95 504 71 588 62 c 0
 601 61 613 60 625 60 c 0
 677 60 722 71 756 95 c 0
 798 124 826 170 826 250 c 0
 826 330 797 377 760 406 c 0
 729 430 690 440 654 440 c 0
 644 440 635 438 625 438 c 0
 605 438 588 454 588 475 c 0
411 388 m 0
 411 419 389 438 362 438 c 0
 361 438 362 438 361 438 c 0
 349 438 344 438 335 425 c 0
 328 414 318 390 315 346 c 1
 333 340 349 338 362 338 c 0
 388 338 411 357 411 388 c 0
EndSplineSet
Validated: 1
EndChar

StartChar: ah
Encoding: 58998 58998 3
Width: 512
Flags: MW
LayerCount: 2
Fore
SplineSet
444 512 m 0
 464 512 481 495 481 475 c 0
 481 455 464 438 444 438 c 0
 411 438 379 425 352 395 c 0
 325 365 302 316 293 245 c 0
 282 163 254 99 214 55 c 0
 174 11 122 -12 68 -12 c 0
 48 -12 31 5 31 25 c 0
 31 45 48 62 68 62 c 0
 101 62 133 75 160 105 c 0
 187 135 210 184 219 255 c 0
 230 337 258 401 298 445 c 0
 338 489 390 512 444 512 c 0
EndSplineSet
EndChar

StartChar: ah_roar
Encoding: 1114114 -1 4
Width: 0
VWidth: 0
Flags: M
LayerCount: 2
Fore
SplineSet
620 62 m 0
 630 62 639 60 649 60 c 0
 685 60 724 70 755 94 c 0
 792 123 820 170 820 250 c 0
 820 330 793 374 751 402 c 0
 714 427 661 439 603 439 c 0
 533 439 483 423 448 390 c 0
 417 361 394 316 385 245 c 0
 374 163 347 99 307 55 c 0
 267 11 214 -12 160 -12 c 0
 140 -12 123 5 123 25 c 0
 123 45 140 62 160 62 c 0
 193 62 225 75 252 105 c 0
 279 135 303 184 312 255 c 0
 323 337 350 401 397 444 c 0
 450 493 518 513 605 513 c 0
 673 513 739 499 793 463 c 0
 854 422 894 348 894 250 c 0
 894 95 795 -14 650 -14 c 0
 615 -14 583 -9 583 25 c 0
 583 46 600 62 620 62 c 0
EndSplineSet
Validated: 1
EndChar

StartChar: axe
Encoding: 58987 58987 5
Width: 552
Flags: MW
LayerCount: 2
Fore
SplineSet
31 837 m 0
 31 856 46 874 68 874 c 0
 82 874 95 866 101 854 c 2
 355 358 l 1
 440 495 l 2
 447 505 458 512 471 512 c 0
 493 512 508 495 508 475 c 0
 508 468 507 461 503 455 c 2
 394 281 l 1
 516 42 l 2
 519 37 521 31 521 25 c 0
 521 6 506 -12 484 -12 c 0
 470 -12 457 -4 451 8 c 2
 348 208 l 1
 222 5 l 2
 215 -5 204 -12 191 -12 c 0
 170 -12 154 5 154 25 c 0
 154 32 155 39 159 45 c 2
 309 285 l 1
 35 820 l 2
 32 825 31 831 31 837 c 0
EndSplineSet
EndChar

StartChar: bob
Encoding: 58961 58961 6
Width: 396
Flags: MW
LayerCount: 2
Fore
SplineSet
328 -12 m 0
 316 -12 304 -10 293 -10 c 1
 293 -337 l 2
 293 -357 276 -374 256 -374 c 0
 252 -374 247 -373 243 -372 c 0
 113 -325 31 -220 31 -101 c 0
 31 -43 65 7 118 34 c 0
 147 48 180 57 219 61 c 1
 219 475 l 2
 219 495 236 512 256 512 c 0
 276 512 293 495 293 475 c 2
 293 64 l 1
 305 64 317 63 330 62 c 0
 349 61 365 44 365 25 c 0
 365 4 348 -12 328 -12 c 0
219 -13 m 1
 190 -17 168 -24 151 -32 c 0
 117 -49 105 -68 105 -101 c 0
 105 -173 144 -238 219 -280 c 1
 219 -13 l 1
EndSplineSet
EndChar

StartChar: church
Encoding: 58974 58974 7
Width: 560
Flags: MW
LayerCount: 2
Fore
SplineSet
69 438 m 0
 49 438 32 453 32 475 c 0
 32 493 45 508 62 511 c 0
 171 531 299 653 451 859 c 0
 458 868 468 874 480 874 c 0
 500 874 517 857 517 837 c 0
 517 829 515 822 511 816 c 0
 315 538 237 356 237 231 c 0
 237 134 260 56 382 56 c 0
 423 56 438 57 488 62 c 0
 489 62 491 62 492 62 c 0
 512 62 529 46 529 25 c 0
 529 6 515 -10 496 -12 c 0
 444 -17 424 -18 382 -18 c 0
 280 -18 218 33 190 90 c 0
 165 142 163 195 163 224 c 0
 163 313 187 403 243 519 c 1
 188 477 132 449 75 439 c 0
 73 439 71 438 69 438 c 0
EndSplineSet
EndChar

StartChar: deed
Encoding: 58963 58963 8
Width: 417
Flags: MW
LayerCount: 2
Fore
SplineSet
349 62 m 0
 368 62 386 47 386 25 c 0
 386 10 377 -2 365 -8 c 0
 257 -60 166 -194 151 -341 c 0
 149 -360 133 -374 114 -374 c 0
 94 -374 77 -357 77 -337 c 2
 77 475 l 2
 77 495 94 512 114 512 c 0
 134 512 151 495 151 475 c 2
 151 -113 l 1
 196 -38 259 23 333 58 c 0
 338 60 343 62 349 62 c 0
EndSplineSet
EndChar

StartChar: deed_ado_roar
Encoding: 1114115 -1 9
Width: 0
VWidth: 0
Flags: M
LayerCount: 2
Fore
SplineSet
840 62 m 0
 850 62 859 60 869 60 c 0
 905 60 944 70 975 94 c 0
 1012 123 1040 170 1040 250 c 0
 1040 330 1013 374 971 403 c 0
 936 427 887 439 833 439 c 0
 823 439 813 439 802 438 c 0
 657 422 534 296 431 134 c 0
 328 -28 246 -221 171 -355 c 0
 165 -366 152 -374 138 -374 c 0
 118 -374 101 -357 101 -337 c 2
 101 475 l 2
 101 495 118 512 138 512 c 0
 158 512 175 495 175 475 c 2
 175 -186 l 1
 231 -74 294 56 369 174 c 0
 477 344 612 493 794 512 c 0
 807 513 820 513 834 513 c 0
 999 513 1114 420 1114 250 c 0
 1114 95 1015 -14 870 -14 c 0
 835 -14 803 -9 803 25 c 0
 803 46 820 62 840 62 c 0
EndSplineSet
Validated: 1
EndChar

StartChar: eat
Encoding: 58993 58993 10
Width: 408
Flags: MW
LayerCount: 2
Fore
SplineSet
294 512 m 0
 315 512 331 495 331 475 c 2
 331 25 l 2
 331 5 314 -12 294 -12 c 0
 274 -12 258 5 258 25 c 2
 258 319 l 1
 101 8 l 2
 95 -4 82 -12 68 -12 c 0
 46 -12 31 6 31 25 c 0
 31 31 33 37 35 42 c 2
 261 492 l 2
 267 503 278 512 294 512 c 0
EndSplineSet
EndChar

StartChar: ed
Encoding: 58994 58994 11
Width: 466
Flags: MW
LayerCount: 2
Fore
SplineSet
435 25 m 0
 435 4 418 -12 398 -12 c 0
 396 -12 395 -12 393 -12 c 0
 315 -1 229 30 165 105 c 0
 101 180 61 297 61 475 c 0
 61 495 78 512 98 512 c 0
 118 512 135 495 135 475 c 0
 135 308 171 211 221 153 c 0
 271 95 335 72 403 62 c 0
 421 59 435 44 435 25 c 0
EndSplineSet
EndChar

StartChar: ed_roar
Encoding: 1114116 -1 12
Width: 0
VWidth: 0
Flags: M
LayerCount: 2
Fore
SplineSet
565 475 m 0
 565 509 596 514 631 514 c 0
 776 514 876 405 876 250 c 0
 876 80 761 -13 596 -13 c 0
 583 -13 570 -13 557 -12 c 0
 484 -6 391 24 314 99 c 0
 237 174 181 295 181 475 c 0
 181 495 198 512 218 512 c 0
 238 512 255 495 255 475 c 0
 255 310 304 212 366 151 c 0
 428 90 505 67 563 62 c 0
 574 61 585 60 595 60 c 0
 649 60 698 73 733 97 c 0
 775 126 802 170 802 250 c 0
 802 330 773 377 736 406 c 0
 705 430 667 440 631 440 c 0
 621 440 611 438 601 438 c 0
 581 438 565 454 565 475 c 0
EndSplineSet
Validated: 1
EndChar

StartChar: eight
Encoding: 56 56 13
Width: 640
Flags: HMW
LayerCount: 2
Fore
SplineSet
234 480 m 1
 165 517 96 573 96 672 c 0
 96 723 111 775 150 814 c 0
 189 853 249 874 327 874 c 0
 405 874 462 851 498 811 c 0
 534 771 544 719 544 668 c 0
 544 571 476 516 407 480 c 1
 498 434 584 364 584 230 c 0
 584 106 485 -12 320 -12 c 0
 155 -12 56 106 56 230 c 0
 56 364 143 434 234 480 c 1
327 800 m 0
 262 800 224 783 202 761 c 0
 180 739 170 708 170 672 c 0
 170 627 187 602 220 576 c 0
 246 556 282 538 321 520 c 1
 360 538 395 556 420 575 c 0
 453 600 471 624 471 668 c 0
 471 708 462 740 443 762 c 0
 424 784 392 800 327 800 c 0
321 439 m 1
 268 415 217 390 183 358 c 0
 150 327 129 291 129 230 c 0
 129 142 187 62 320 62 c 0
 453 62 511 142 511 230 c 0
 511 291 490 327 457 358 c 0
 423 390 373 415 321 439 c 1
EndSplineSet
EndChar

StartChar: emdash
Encoding: 8212 8212 14
Width: 1000
Flags: M
LayerCount: 2
Fore
SplineSet
80 412 m 2
 524 412 l 2
 544 412 561 395 561 375 c 0
 561 355 544 338 524 338 c 2
 80 338 l 2
 60 338 43 355 43 375 c 0
 43 395 60 412 80 412 c 2
EndSplineSet
Validated: 1
EndChar

StartChar: exam
Encoding: 58988 58988 15
Width: 564
Flags: MW
LayerCount: 2
Fore
SplineSet
44 475 m 0
 44 494 59 512 81 512 c 0
 95 512 107 504 113 492 c 2
 205 314 l 1
 318 495 l 2
 325 505 336 512 349 512 c 0
 371 512 386 495 386 475 c 0
 386 468 384 461 380 455 c 2
 244 237 l 1
 529 -320 l 2
 532 -325 533 -331 533 -337 c 0
 533 -356 518 -374 496 -374 c 0
 482 -374 469 -366 463 -354 c 2
 198 164 l 1
 99 5 l 2
 92 -5 81 -12 68 -12 c 0
 47 -12 31 5 31 25 c 0
 31 32 33 39 37 45 c 2
 159 241 l 1
 48 458 l 2
 45 463 44 469 44 475 c 0
EndSplineSet
EndChar

StartChar: fife
Encoding: 58968 58968 16
Width: 508
Flags: MW
LayerCount: 2
Fore
SplineSet
141 837 m 0
 141 858 158 874 178 874 c 0
 181 874 184 874 187 873 c 0
 339 832 403 694 413 511 c 1
 422 511 431 512 440 512 c 0
 460 512 477 495 477 475 c 0
 477 455 460 438 440 438 c 0
 431 438 423 437 414 437 c 1
 412 324 396 217 363 134 c 0
 336 65 288 -12 199 -12 c 0
 105 -12 54 86 54 182 c 0
 54 297 93 387 163 440 c 0
 210 476 269 497 339 506 c 1
 331 657 289 770 168 802 c 0
 152 806 141 820 141 837 c 0
127 183 m 0
 127 128 150 62 199 62 c 0
 217 62 231 69 248 85 c 0
 265 101 281 128 295 162 c 0
 322 230 338 328 340 431 c 1
 284 422 240 406 208 381 c 0
 159 343 127 282 127 183 c 0
EndSplineSet
EndChar

StartChar: five
Encoding: 53 53 17
Width: 640
Flags: HMW
LayerCount: 2
Fore
SplineSet
65 105 m 0
 65 125 81 142 102 142 c 0
 113 142 123 137 130 129 c 0
 163 89 201 62 291 62 c 0
 354 62 406 79 442 113 c 0
 478 147 501 197 501 273 c 0
 501 349 479 400 446 433 c 0
 413 466 367 483 308 483 c 0
 233 483 167 465 134 442 c 0
 128 438 121 436 113 436 c 0
 93 436 76 453 76 473 c 0
 76 474 76 476 76 477 c 2
 115 830 l 2
 117 848 133 863 152 863 c 2
 514 863 l 2
 534 863 551 846 551 826 c 0
 551 806 534 789 514 789 c 2
 185 789 l 1
 157 533 l 1
 193 545 244 557 308 557 c 0
 381 557 449 534 498 485 c 0
 547 436 575 364 575 273 c 0
 575 181 544 108 492 59 c 0
 440 10 368 -12 291 -12 c 0
 221 -12 171 4 136 25 c 0
 101 46 81 72 73 81 c 0
 68 87 65 96 65 105 c 0
EndSplineSet
EndChar

StartChar: four
Encoding: 52 52 18
Width: 640
Flags: HMW
LayerCount: 2
Fore
SplineSet
227 874 m 0
 249 874 264 857 264 837 c 0
 264 834 264 831 263 828 c 2
 136 317 l 1
 391 317 l 1
 391 686 l 2
 391 706 408 723 428 723 c 0
 448 723 464 706 464 686 c 2
 464 317 l 1
 551 317 l 2
 571 317 588 300 588 280 c 0
 588 260 571 243 551 243 c 2
 464 243 l 1
 464 25 l 2
 464 5 448 -12 428 -12 c 0
 408 -12 391 5 391 25 c 2
 391 243 l 1
 89 243 l 2
 69 243 52 260 52 280 c 0
 52 283 52 286 53 289 c 2
 191 846 l 2
 195 862 209 874 227 874 c 0
EndSplineSet
EndChar

StartChar: gig
Encoding: 58965 58965 19
Width: 398
Flags: MW
LayerCount: 2
Fore
SplineSet
54 263 m 0
 54 392 123 512 253 512 c 0
 285 512 367 508 367 461 c 0
 367 439 349 425 330 425 c 0
 325 425 320 426 315 428 c 0
 294 437 277 438 253 438 c 0
 166 438 128 353 128 263 c 0
 128 176 132 138 219 51 c 0
 223 47 227 42 231 38 c 1
 253 48 279 56 307 61 c 0
 309 61 312 62 314 62 c 0
 334 62 350 47 350 25 c 0
 350 7 337 -8 320 -11 c 0
 306 -14 294 -17 282 -21 c 1
 298 -44 310 -66 318 -86 c 0
 334 -126 335 -162 335 -193 c 0
 335 -298 291 -374 207 -374 c 0
 124 -374 79 -297 79 -193 c 0
 79 -147 92 -93 128 -44 c 0
 139 -29 152 -15 167 -2 c 1
 71 94 54 170 54 263 c 0
216 -57 m 1
 205 -66 195 -76 187 -87 c 0
 162 -121 153 -161 153 -193 c 0
 153 -251 167 -277 178 -288 c 0
 189 -299 200 -300 207 -300 c 0
 215 -300 226 -299 237 -288 c 0
 248 -277 261 -252 261 -193 c 0
 261 -132 247 -98 216 -57 c 1
EndSplineSet
EndChar

StartChar: haha
Encoding: 58978 58978 20
Width: 447
Flags: MW
LayerCount: 2
Fore
SplineSet
379 874 m 0
 399 874 416 857 416 837 c 0
 416 817 399 800 379 800 c 0
 328 800 272 783 228 742 c 0
 184 701 151 637 151 534 c 2
 151 25 l 2
 151 5 134 -12 114 -12 c 0
 94 -12 77 5 77 25 c 2
 77 534 l 2
 77 653 118 741 177 796 c 0
 236 851 311 874 379 874 c 0
EndSplineSet
EndChar

StartChar: if
Encoding: 58992 58992 21
Width: 228
Flags: MW
LayerCount: 2
Fore
SplineSet
114 512 m 0
 134 512 151 495 151 475 c 2
 151 25 l 2
 151 5 134 -12 114 -12 c 0
 94 -12 77 5 77 25 c 2
 77 475 l 2
 77 495 94 512 114 512 c 0
EndSplineSet
EndChar

StartChar: if_ado
Encoding: 1114117 -1 22
Width: 0
VWidth: 0
Flags: M
LayerCount: 2
Fore
SplineSet
682 512 m 0
 702 512 719 496 719 475 c 0
 719 456 705 441 687 438 c 0
 562 420 405 280 334 15 c 0
 330 -1 315 -12 298 -12 c 0
 278 -12 261 5 261 25 c 2
 261 475 l 2
 261 495 278 512 298 512 c 0
 318 512 335 495 335 475 c 2
 335 224 l 1
 423 393 551 494 677 512 c 0
 679 512 680 512 682 512 c 0
EndSplineSet
Validated: 1
EndChar

StartChar: if_ado_roar
Encoding: 1114118 -1 23
Width: 0
VWidth: 0
Flags: M
LayerCount: 2
Fore
SplineSet
594 62 m 0
 604 62 613 60 623 60 c 0
 659 60 698 70 729 94 c 0
 766 123 794 170 794 250 c 0
 794 330 767 376 725 405 c 0
 691 429 645 440 594 440 c 0
 582 440 569 439 556 438 c 0
 386 420 234 280 163 15 c 0
 159 -1 144 -12 127 -12 c 0
 107 -12 91 5 91 25 c 2
 91 475 l 2
 91 495 107 512 127 512 c 0
 147 512 164 495 164 475 c 2
 164 222 l 1
 255 393 394 496 549 512 c 0
 564 514 580 514 595 514 c 0
 757 514 868 417 868 250 c 0
 868 95 769 -14 624 -14 c 0
 589 -14 557 -9 557 25 c 0
 557 46 574 62 594 62 c 0
EndSplineSet
Validated: 1
EndChar

StartChar: inkling
Encoding: 58980 58980 24
Width: 473
Flags: MW
LayerCount: 2
Fore
SplineSet
193 192 m 1
 131 309 84 466 84 602 c 0
 84 692 101 794 154 842 c 0
 175 861 204 874 236 874 c 0
 305 874 345 823 364 772 c 0
 384 719 389 657 389 602 c 0
 389 466 341 309 279 192 c 1
 324 120 376 71 414 61 c 0
 430 57 442 42 442 25 c 0
 442 3 425 -12 405 -12 c 0
 402 -12 398 -12 395 -11 c 0
 333 6 281 54 236 120 c 1
 191 54 139 6 77 -11 c 0
 74 -12 71 -12 68 -12 c 0
 48 -12 31 3 31 25 c 0
 31 42 42 57 58 61 c 0
 96 71 148 120 193 192 c 1
236 800 m 0
 221 800 212 797 203 788 c 0
 167 755 157 670 157 602 c 0
 157 498 189 375 236 272 c 1
 283 375 315 498 315 602 c 0
 315 670 305 755 269 788 c 0
 260 797 251 800 236 800 c 0
EndSplineSet
EndChar

StartChar: kick
Encoding: 58964 58964 25
Width: 418
Flags: MW
LayerCount: 2
Fore
SplineSet
90 837 m 0
 90 859 108 874 127 874 c 0
 133 874 138 873 143 871 c 0
 301 794 350 621 359 396 c 0
 359 396 359 396 359 395 c 0
 359 375 342 358 322 358 c 0
 309 358 296 365 290 376 c 0
 279 394 269 410 258 421 c 0
 247 432 236 438 213 438 c 0
 171 438 159 424 146 396 c 0
 133 368 128 324 128 281 c 0
 128 250 141 190 170 143 c 0
 199 96 241 62 309 62 c 0
 329 62 345 45 345 25 c 0
 345 5 329 -12 309 -12 c 0
 152 -12 54 142 54 281 c 0
 54 328 58 380 79 427 c 0
 100 474 148 512 213 512 c 0
 237 512 259 506 277 497 c 1
 260 643 217 752 110 804 c 0
 98 810 90 822 90 837 c 0
EndSplineSet
EndChar

StartChar: loch
Encoding: 58985 58985 26
Width: 609
Flags: MW
LayerCount: 2
Fore
SplineSet
445 -12 m 0
 425 -12 408 5 408 25 c 0
 408 35 412 44 419 51 c 0
 461 93 482 148 482 256 c 0
 482 349 429 423 341 436 c 1
 341 25 l 2
 341 5 324 -12 304 -12 c 0
 212 -12 145 26 106 80 c 0
 67 134 54 201 54 262 c 0
 54 326 75 389 118 436 c 0
 154 475 205 501 267 509 c 1
 267 837 l 2
 267 857 284 874 304 874 c 0
 324 874 341 857 341 837 c 2
 341 510 l 1
 407 502 460 472 496 430 c 0
 537 381 556 318 556 256 c 0
 556 138 528 56 471 -1 c 0
 464 -8 455 -12 445 -12 c 0
267 435 m 1
 181 421 128 356 128 262 c 0
 128 159 169 78 267 64 c 1
 267 435 l 1
EndSplineSet
EndChar

StartChar: loll
Encoding: 58983 58983 27
Width: 500
Flags: MW
LayerCount: 2
Fore
SplineSet
403 512 m 0
 424 512 440 495 440 475 c 0
 440 474 440 472 440 471 c 0
 434 418 418 362 379 316 c 0
 358 291 330 269 296 252 c 1
 322 228 340 192 340 149 c 0
 340 36 232 -14 114 -14 c 0
 98 -14 82 -14 65 -12 c 0
 46 -10 31 6 31 25 c 0
 31 46 48 62 68 62 c 0
 83 62 97 60 111 60 c 0
 154 60 192 67 218 79 c 0
 252 95 267 113 267 149 c 0
 267 196 232 218 187 218 c 0
 167 218 151 235 151 255 c 0
 151 273 163 288 180 291 c 0
 252 305 295 332 322 364 c 0
 349 396 362 436 366 479 c 0
 368 498 384 512 403 512 c 0
EndSplineSet
EndChar

StartChar: mime
Encoding: 58981 58981 28
Width: 482
Flags: MW
LayerCount: 2
Fore
SplineSet
381 512 m 0
 401 512 418 497 418 475 c 0
 418 459 407 445 393 440 c 0
 262 393 205 272 192 88 c 1
 209 90 225 90 241 90 c 0
 368 90 451 25 451 -103 c 0
 451 -211 397 -314 301 -369 c 0
 296 -372 290 -374 283 -374 c 0
 273 -374 264 -370 257 -363 c 0
 190 -296 117 -173 116 -1 c 1
 104 -4 91 -6 80 -10 c 0
 77 -11 73 -12 69 -12 c 0
 50 -12 32 3 32 25 c 0
 32 42 43 55 58 60 c 0
 77 66 96 71 117 76 c 1
 129 299 207 452 368 510 c 0
 372 511 377 512 381 512 c 0
377 -102 m 0
 377 -17 332 16 246 16 c 0
 228 16 209 14 189 12 c 0
 189 9 189 7 189 4 c 0
 189 -131 240 -230 289 -289 c 1
 345 -245 377 -175 377 -102 c 0
EndSplineSet
EndChar

StartChar: mime_roar
Encoding: 1114119 -1 29
Width: 0
VWidth: 0
Flags: M
LayerCount: 2
Fore
SplineSet
154 -12 m 0
 135 -12 118 3 118 25 c 0
 118 42 128 55 143 60 c 0
 162 66 184 71 205 76 c 1
 229 335 380 485 542 511 c 0
 569 515 594 518 621 518 c 0
 790 518 903 417 903 250 c 0
 903 95 803 -14 658 -14 c 0
 623 -14 591 -9 591 25 c 0
 591 46 608 62 628 62 c 0
 638 62 647 60 657 60 c 0
 693 60 732 70 763 94 c 0
 800 123 829 170 829 250 c 0
 829 330 801 378 755 409 c 0
 721 431 675 444 620 444 c 0
 599 444 576 443 553 439 c 0
 431 420 306 309 280 88 c 1
 296 90 312 90 327 90 c 0
 454 90 536 25 536 -103 c 0
 536 -211 483 -314 387 -369 c 0
 382 -372 376 -374 369 -374 c 0
 359 -374 349 -370 342 -363 c 0
 275 -296 202 -173 201 -1 c 1
 189 -4 177 -6 166 -10 c 0
 163 -11 158 -12 154 -12 c 0
462 -102 m 0
 462 -17 418 16 332 16 c 0
 314 16 295 14 275 12 c 0
 275 9 275 7 275 4 c 0
 275 -131 325 -230 374 -289 c 1
 430 -245 462 -175 462 -102 c 0
EndSplineSet
Validated: 1
EndChar

StartChar: mime_zoos
Encoding: 1114120 -1 30
Width: 0
VWidth: 0
Flags: M
LayerCount: 2
Fore
SplineSet
616 521 m 0
 751 521 845 464 845 325 c 0
 845 238 794 155 746 72 c 0
 693 -20 645 -102 645 -186 c 0
 645 -238 656 -290 704 -290 c 0
 718 -290 732 -284 749 -268 c 0
 766 -252 785 -226 802 -194 c 0
 836 -130 865 -42 888 45 c 0
 892 61 907 73 924 73 c 0
 946 73 961 56 961 36 c 0
 961 33 961 29 960 26 c 0
 936 -64 906 -156 867 -229 c 0
 848 -266 826 -298 800 -322 c 0
 774 -346 741 -364 704 -364 c 0
 614 -364 571 -280 571 -188 c 0
 571 -74 629 16 682 109 c 0
 730 193 771 271 771 327 c 0
 771 423 711 447 618 447 c 0
 578 447 535 442 496 438 c 0
 378 426 250 310 224 88 c 1
 240 90 256 90 271 90 c 0
 398 90 481 25 481 -103 c 0
 481 -211 428 -314 332 -369 c 0
 327 -372 320 -374 313 -374 c 0
 303 -374 294 -370 287 -363 c 0
 220 -296 147 -173 146 -1 c 1
 134 -4 121 -6 110 -10 c 0
 107 -11 103 -12 99 -12 c 0
 80 -12 62 3 62 25 c 0
 62 42 73 55 88 60 c 0
 107 66 128 71 149 76 c 1
 173 337 324 496 488 512 c 0
 526 516 570 521 616 521 c 0
407 -102 m 0
 407 -17 363 16 277 16 c 0
 259 16 240 14 220 12 c 0
 220 9 220 7 220 4 c 0
 220 -131 270 -230 319 -289 c 1
 375 -245 407 -175 407 -102 c 0
EndSplineSet
Validated: 1
EndChar

StartChar: nine
Encoding: 57 57 31
Width: 640
Flags: HMW
LayerCount: 2
Fore
SplineSet
320.5 874 m 0
 424.5 874 510.5 849 559.5 775 c 0
 563.5 768 563.5 763 565.5 755 c 1
 565.5 25 l 2
 565.5 5 548.5 -12 528.5 -12 c 0
 508.5 -12 492.5 5 492.5 25 c 2
 492.5 450 l 1
 451.5 398 389.5 362 306.5 362 c 0
 176.5 362 74.5 471 74.5 618 c 0
 74.5 766 183.5 874 320.5 874 c 0
320.5 800 m 0
 220.5 800 148.5 732 148.5 618 c 0
 148.5 503 215.5 436 306.5 436 c 0
 387.5 436 426.5 470 454.5 528 c 0
 481.5 583 490.5 663 491.5 743 c 1
 459.5 784 407.5 800 320.5 800 c 0
EndSplineSet
EndChar

StartChar: nun
Encoding: 58982 58982 32
Width: 469
Flags: MW
LayerCount: 2
Fore
SplineSet
401 512 m 0
 421 512 438 497 438 475 c 0
 438 458 427 443 411 439 c 0
 377 430 335 413 295 390 c 1
 345 339 383 269 383 182 c 0
 383 125 372 78 346 43 c 0
 320 8 279 -12 235 -12 c 0
 191 -12 149 8 123 43 c 0
 97 78 87 125 87 182 c 0
 87 269 125 339 175 390 c 1
 135 413 93 430 59 439 c 0
 43 443 32 458 32 475 c 0
 32 496 49 512 69 512 c 0
 72 512 75 512 78 511 c 0
 124 499 182 476 235 440 c 1
 288 476 345 499 391 511 c 0
 394 512 398 512 401 512 c 0
235 346 m 1
 191 305 160 253 160 182 c 0
 160 135 170 103 183 86 c 0
 196 69 210 62 235 62 c 0
 260 62 273 69 286 86 c 0
 299 103 309 135 309 182 c 0
 309 253 279 305 235 346 c 1
EndSplineSet
EndChar

StartChar: nun_nun_nun
Encoding: 1114121 -1 33
Width: 0
VWidth: 0
Flags: M
LayerCount: 2
Fore
SplineSet
-173 475 m 0
 -173 497 -156 512 -136 512 c 0
 -133 512 -129 512 -126 511 c 0
 -80 499 -23 476 30 440 c 1
 100 487 184 512 265 512 c 0
 346 512 430 486 499 440 c 1
 568 486 652 512 733 512 c 0
 814 512 899 487 968 440 c 1
 1021 476 1078 499 1124 511 c 0
 1127 512 1131 512 1134 512 c 0
 1154 512 1171 497 1171 475 c 0
 1171 458 1160 443 1144 439 c 0
 1110 430 1068 414 1028 390 c 1
 1081 336 1116 265 1116 182 c 0
 1116 125 1105 78 1079 43 c 0
 1053 8 1012 -12 968 -12 c 0
 924 -12 882 8 856 43 c 0
 830 78 820 125 820 182 c 0
 820 269 858 339 908 390 c 1
 855 420 791 438 733 438 c 0
 675 438 612 421 559 391 c 1
 612 337 648 265 648 182 c 0
 648 125 637 78 611 43 c 0
 585 8 544 -12 500 -12 c 0
 456 -12 414 8 388 43 c 0
 362 78 351 125 351 182 c 0
 351 265 386 337 439 391 c 1
 386 421 323 438 265 438 c 0
 207 438 144 421 91 390 c 1
 141 339 179 269 179 182 c 0
 179 125 168 78 142 43 c 0
 116 8 75 -12 31 -12 c 0
 -13 -12 -55 8 -81 43 c 0
 -107 78 -117 125 -117 182 c 0
 -117 265 -82 336 -29 390 c 1
 -69 414 -111 430 -145 439 c 0
 -161 443 -173 458 -173 475 c 0
499 346 m 1
 453 303 425 248 425 182 c 0
 425 135 435 103 448 86 c 0
 461 69 475 62 500 62 c 0
 525 62 538 69 551 86 c 0
 564 103 574 135 574 182 c 0
 574 248 545 303 499 346 c 1
968 346 m 1
 924 305 894 253 894 182 c 0
 894 135 903 103 916 86 c 0
 929 69 943 62 968 62 c 0
 993 62 1007 69 1020 86 c 0
 1033 103 1042 135 1042 182 c 0
 1042 248 1014 303 968 346 c 1
31 346 m 1
 -15 303 -44 248 -44 182 c 0
 -44 135 -34 103 -21 86 c 0
 -8 69 6 62 31 62 c 0
 56 62 69 69 82 86 c 0
 95 103 105 135 105 182 c 0
 105 253 75 305 31 346 c 1
EndSplineSet
Validated: 1
EndChar

StartChar: oak
Encoding: 59004 59004 34
Width: 592
Flags: MW
LayerCount: 2
Fore
SplineSet
217 512 m 0
 237 512 254 497 254 475 c 0
 254 459 243 445 229 440 c 0
 164 418 128 336 128 250 c 0
 128 147 183 62 296 62 c 0
 409 62 465 147 465 250 c 0
 465 336 429 418 364 440 c 0
 350 445 339 459 339 475 c 0
 339 497 357 512 376 512 c 0
 380 512 384 511 388 510 c 0
 484 477 539 371 539 250 c 0
 539 193 524 130 485 78 c 0
 446 26 381 -12 296 -12 c 0
 211 -12 147 26 108 78 c 0
 69 130 54 193 54 250 c 0
 54 371 109 477 205 510 c 0
 209 511 213 512 217 512 c 0
EndSplineSet
EndChar

StartChar: oil
Encoding: 59001 59001 35
Width: 545
Flags: MW
LayerCount: 2
Fore
SplineSet
271 524 m 0
 291 524 307 508 307 488 c 0
 307 472 307 457 306 443 c 1
 326 430 347 414 366 394 c 0
 435 322 487 204 487 25 c 0
 487 5 470 -12 450 -12 c 0
 430 -12 413 5 413 25 c 0
 413 190 367 287 313 343 c 0
 307 350 300 355 293 361 c 1
 288 341 281 324 272 308 c 0
 247 264 201 238 153 238 c 0
 84 238 32 298 32 364 c 0
 32 430 84 491 153 491 c 0
 177 491 204 487 233 478 c 1
 233 481 234 485 234 488 c 0
 234 508 251 524 271 524 c 0
153 417 m 0
 126 417 106 393 106 364 c 0
 106 335 126 312 153 312 c 0
 180 312 193 320 208 345 c 0
 216 358 222 376 227 401 c 1
 199 412 173 417 153 417 c 0
EndSplineSet
EndChar

StartChar: one
Encoding: 49 49 36
Width: 640
Flags: HMW
LayerCount: 2
Fore
SplineSet
155.5 659 m 0
 135.5 659 118.5 675 118.5 696 c 0
 118.5 707 123.5 718 131.5 725 c 2
 301.5 866 l 2
 307.5 871 315.5 874 325.5 874 c 0
 347.5 874 362.5 857 362.5 837 c 2
 362.5 73 l 1
 498.5 73 l 2
 518.5 73 535.5 57 535.5 37 c 0
 535.5 17 518.5 0 498.5 0 c 0
 379.5 0 260.5 0 141.5 0 c 0
 121.5 0 104.5 17 104.5 37 c 0
 104.5 57 121.5 73 141.5 73 c 2
 288.5 73 l 1
 288.5 759 l 1
 178.5 668 l 2
 172.5 663 164.5 659 155.5 659 c 0
EndSplineSet
EndChar

StartChar: pipe
Encoding: 58960 58960 37
Width: 397
Flags: MW
LayerCount: 2
Fore
SplineSet
246 796 m 1
 245 795 233 800 222 800 c 0
 209 800 198 795 184 780 c 0
 170 765 155 739 143 708 c 0
 119 645 105 558 105 475 c 0
 105 455 88 438 68 438 c 0
 48 438 31 455 31 475 c 0
 31 610 61 756 130 830 c 0
 154 856 186 874 222 874 c 0
 242 874 263 872 283 860 c 0
 303 848 320 821 320 793 c 2
 320 25 l 2
 320 5 303 -12 283 -12 c 0
 263 -12 246 5 246 25 c 2
 246 793 l 2
 246 795 246 796 246 796 c 1
EndSplineSet
EndChar

StartChar: qsbracketleft
Encoding: 58990 58990 38
Width: 501
Flags: MW
LayerCount: 2
Fore
SplineSet
433 874 m 0
 455 874 470 856 470 837 c 0
 470 833 469 829 468 826 c 2
 118 -300 l 1
 433 -300 l 2
 453 -300 470 -317 470 -337 c 0
 470 -357 453 -374 433 -374 c 2
 68 -374 l 2
 48 -374 31 -357 31 -337 c 0
 31 -333 31 -329 32 -326 c 2
 398 848 l 2
 403 863 416 874 433 874 c 0
EndSplineSet
EndChar

StartChar: question
Encoding: 63 63 39
Width: 417
Flags: HMW
LayerCount: 2
Fore
SplineSet
98 718 m 0
 76 718 61 735 61 754 c 0
 61 758 63 763 64 767 c 0
 76 801 94 829 121 848 c 0
 148 867 180 874 216 874 c 0
 256 874 296 860 321 827 c 0
 346 794 356 750 356 690 c 0
 356 608 306 543 264 486 c 0
 222 429 187 378 187 337 c 0
 187 309 196 290 217 290 c 0
 225 290 231 291 235 293 c 0
 239 295 244 297 250 312 c 0
 255 326 268 335 284 335 c 0
 306 335 321 318 321 299 c 0
 321 294 321 289 319 285 c 0
 302 242 266 216 217 216 c 0
 154 216 113 271 113 337 c 0
 113 414 163 474 205 530 c 0
 247 586 282 639 282 690 c 0
 282 741 273 770 263 783 c 0
 253 796 242 800 216 800 c 0
 190 800 174 796 163 788 c 0
 152 780 142 767 133 742 c 0
 128 728 114 718 98 718 c 0
EndSplineSet
EndChar

StartChar: roar
Encoding: 58984 58984 40
Width: 396
Flags: MW
LayerCount: 2
Fore
SplineSet
31 475 m 0
 31 509 63 514 98 514 c 0
 243 514 342 405 342 250 c 0
 342 95 243 -14 98 -14 c 0
 63 -14 31 -9 31 25 c 0
 31 46 48 62 68 62 c 0
 78 62 87 60 97 60 c 0
 133 60 172 70 203 94 c 0
 240 123 269 170 269 250 c 0
 269 330 240 377 203 406 c 0
 172 430 133 440 97 440 c 0
 87 440 78 438 68 438 c 0
 48 438 31 454 31 475 c 0
EndSplineSet
EndChar

StartChar: seven
Encoding: 55 55 41
Width: 640
Flags: HMW
LayerCount: 2
Fore
SplineSet
227.5 -12 m 0
 205.5 -12 190.5 6 190.5 25 c 0
 190.5 30 191.5 35 193.5 39 c 2
 509.5 789 l 1
 74.5 789 l 2
 54.5 789 37.5 806 37.5 826 c 0
 37.5 846 54.5 863 74.5 863 c 2
 565.5 863 l 2
 585.5 863 602.5 846 602.5 826 c 0
 602.5 821 601.5 815 599.5 811 c 2
 261.5 11 l 2
 255.5 -2 242.5 -12 227.5 -12 c 0
EndSplineSet
EndChar

StartChar: shush
Encoding: 58972 58972 42
Width: 451
Flags: MW
LayerCount: 2
Fore
SplineSet
382 62 m 0
 402 62 419 46 419 25 c 0
 419 6 405 -10 386 -12 c 0
 334 -17 314 -18 272 -18 c 0
 170 -18 108 33 80 90 c 0
 55 142 53 195 53 224 c 0
 53 386 138 573 340 859 c 0
 346 868 356 874 370 874 c 0
 391 874 407 857 407 837 c 0
 407 829 404 822 400 816 c 0
 204 538 127 356 127 231 c 0
 127 134 150 56 272 56 c 0
 313 56 328 57 378 62 c 0
 379 62 381 62 382 62 c 0
EndSplineSet
EndChar

StartChar: sis
Encoding: 58970 58970 43
Width: 329
Flags: MW
LayerCount: 2
Fore
SplineSet
59 651 m 0
 59 777 128 874 239 874 c 0
 259 874 275 857 275 837 c 0
 275 817 259 800 239 800 c 0
 216 800 190 791 170 770 c 0
 150 749 133 712 133 651 c 0
 133 595 163 545 198 484 c 0
 233 423 273 352 273 260 c 0
 273 176 262 111 232 63 c 0
 202 15 150 -12 91 -12 c 0
 71 -12 54 5 54 25 c 0
 54 45 71 62 91 62 c 0
 132 62 151 72 169 101 c 0
 187 130 199 183 199 260 c 0
 199 410 59 498 59 651 c 0
EndSplineSet
EndChar

StartChar: six
Encoding: 54 54 44
Width: 640
Flags: HMW
LayerCount: 2
Fore
SplineSet
583 250 m 0
 583 103 483 -12 331 -12 c 0
 231 -12 156 43 114 125 c 0
 72 207 57 313 57 431 c 0
 57 550 76 658 122 739 c 0
 168 820 247 874 348 874 c 0
 394 874 459 866 521 823 c 0
 531 816 537 806 537 793 c 0
 537 772 520 756 500 756 c 0
 492 756 485 759 479 763 c 0
 433 795 387 800 348 800 c 0
 272 800 224 766 187 702 c 0
 151 639 132 546 131 439 c 1
 205 496 280 512 335 512 c 0
 400 512 462 492 509 448 c 0
 556 404 583 336 583 250 c 0
331 62 m 0
 444 62 509 142 509 250 c 0
 509 321 488 366 458 395 c 0
 428 424 385 438 335 438 c 0
 282 438 208 424 134 343 c 1
 141 269 156 205 180 159 c 0
 213 95 256 62 331 62 c 0
EndSplineSet
EndChar

StartChar: three
Encoding: 51 51 46
Width: 640
Flags: HMW
LayerCount: 2
Fore
SplineSet
124.5 725 m 0
 103.5 725 87.5 742 87.5 762 c 0
 87.5 771 91.5 780 96.5 786 c 0
 149.5 849 228.5 874 305.5 874 c 0
 361.5 874 420.5 865 469.5 833 c 0
 518.5 801 552.5 742 552.5 664 c 0
 552.5 576 514.5 510 448.5 475 c 1
 466.5 466 481.5 455 495.5 442 c 0
 546.5 394 563.5 326 563.5 248 c 0
 563.5 92 450.5 -12 299.5 -12 c 0
 176.5 -12 111.5 52 88.5 73 c 0
 81.5 80 76.5 89 76.5 100 c 0
 76.5 121 93.5 137 113.5 137 c 0
 123.5 137 130.5 134 137.5 128 c 0
 166.5 102 199.5 62 299.5 62 c 0
 412.5 62 490.5 131 490.5 248 c 0
 490.5 315 477.5 359 445.5 388 c 0
 413.5 417 356.5 437 258.5 438 c 0
 238.5 438 222.5 455 222.5 475 c 0
 222.5 495 238.5 512 258.5 512 c 0
 337.5 513 395.5 526 428.5 549 c 0
 461.5 572 478.5 604 478.5 664 c 0
 478.5 723 459.5 751 429.5 771 c 0
 399.5 791 353.5 800 305.5 800 c 0
 244.5 800 188.5 780 153.5 738 c 0
 146.5 730 135.5 725 124.5 725 c 0
EndSplineSet
EndChar

StartChar: tut
Encoding: 58962 58962 47
Width: 227
Flags: MW
LayerCount: 2
Fore
SplineSet
114 874 m 0
 134 874 150 857 150 837 c 2
 150 25 l 2
 150 5 134 -12 114 -12 c 0
 94 -12 77 5 77 25 c 2
 77 837 l 2
 77 857 94 874 114 874 c 0
EndSplineSet
EndChar

StartChar: two
Encoding: 50 50 48
Width: 640
Flags: HMW
LayerCount: 2
Fore
SplineSet
114 708 m 0
 93 708 77 725 77 745 c 0
 77 754 81 762 87 769 c 0
 145 835 206 874 315 874 c 0
 383 874 445 855 488 811 c 0
 531 767 553 701 553 618 c 0
 553 489 477 372 387 269 c 0
 323 196 252 129 193 73 c 1
 538 73 l 2
 558 73 575 57 575 37 c 0
 575 17 558 0 538 0 c 2
 102 0 l 2
 82 0 65 17 65 37 c 0
 65 47 68 55 75 62 c 0
 144 132 246 220 331 317 c 0
 416 414 480 519 480 618 c 0
 480 688 462 732 435 759 c 0
 408 786 370 800 315 800 c 0
 220 800 195 781 142 720 c 0
 135 712 125 708 114 708 c 0
EndSplineSet
EndChar

StartChar: valve
Encoding: 58969 58969 49
Width: 533
Flags: MW
LayerCount: 2
Fore
SplineSet
465 62 m 0
 487 62 502 45 502 25 c 0
 502 22 502 18 501 15 c 0
 476 -79 448 -170 412 -242 c 0
 394 -278 374 -310 349 -334 c 0
 324 -358 292 -374 256 -374 c 0
 171 -374 132 -294 115 -221 c 0
 101 -160 95 -87 94 -11 c 1
 85 -11 77 -12 68 -12 c 0
 48 -12 31 5 31 25 c 0
 31 45 48 62 68 62 c 0
 77 62 85 63 94 63 c 1
 96 176 112 283 145 366 c 0
 172 435 221 512 310 512 c 0
 399 512 455 426 455 338 c 0
 455 225 415 132 347 73 c 0
 300 32 240 8 168 -4 c 1
 169 -80 174 -151 187 -204 c 0
 195 -239 207 -265 219 -280 c 0
 231 -295 240 -300 256 -300 c 0
 270 -300 282 -295 298 -280 c 0
 314 -265 330 -240 346 -209 c 0
 377 -146 405 -57 430 35 c 0
 434 51 448 62 465 62 c 0
381 337 m 0
 381 384 356 438 310 438 c 0
 292 438 277 431 260 415 c 0
 243 399 227 372 213 338 c 0
 186 270 170 173 168 71 c 1
 223 82 267 101 299 129 c 0
 348 172 381 240 381 337 c 0
EndSplineSet
EndChar

StartChar: whitewheat
Encoding: 58979 58979 50
Width: 700
Flags: MW
LayerCount: 2
Fore
SplineSet
632 512 m 0
 654 512 669 495 669 475 c 0
 669 469 667 464 665 459 c 2
 261 -354 l 2
 255 -366 242 -374 228 -374 c 0
 208 -374 191 -357 191 -337 c 0
 191 -325 194 -314 194 -301 c 0
 194 -253 181 -193 159 -141 c 0
 131 -77 88 -24 53 -9 c 0
 40 -3 31 10 31 25 c 0
 31 47 49 62 68 62 c 0
 73 62 77 61 82 59 c 0
 170 21 230 -90 256 -199 c 1
 599 491 l 2
 605 503 618 512 632 512 c 0
EndSplineSet
EndChar

StartChar: winwin
Encoding: 58977 58977 51
Width: 539
Flags: MW
LayerCount: 2
Fore
SplineSet
471 512 m 0
 493 512 508 495 508 475 c 0
 508 469 507 464 505 459 c 2
 101 -354 l 2
 95 -366 82 -374 68 -374 c 0
 46 -374 31 -356 31 -337 c 0
 31 -331 33 -326 35 -321 c 2
 438 491 l 2
 444 503 457 512 471 512 c 0
EndSplineSet
EndChar

StartChar: wool
Encoding: 59005 59005 52
Width: 635
Flags: MW
LayerCount: 2
Fore
SplineSet
91 512 m 0
 111 512 128 495 128 475 c 0
 128 347 172 169 246 96 c 0
 269 73 292 62 318 62 c 0
 344 62 367 73 390 96 c 0
 463 169 508 347 508 475 c 0
 508 495 525 512 545 512 c 0
 565 512 582 495 582 475 c 0
 582 324 530 131 442 44 c 0
 409 11 366 -12 318 -12 c 0
 270 -12 227 11 194 44 c 0
 106 131 54 323 54 475 c 0
 54 495 71 512 91 512 c 0
EndSplineSet
EndChar

StartChar: yoyo
Encoding: 58976 58976 53
Width: 388
Flags: MW
LayerCount: 2
Fore
SplineSet
210 874 m 0
 244 874 279 859 301 829 c 0
 323 799 334 757 334 705 c 0
 334 632 309 565 262 516 c 0
 235 488 201 466 161 453 c 1
 161 25 l 2
 161 5 144 -12 124 -12 c 0
 104 -12 87 5 87 25 c 2
 87 439 l 1
 81 439 74 438 68 438 c 0
 48 438 31 455 31 475 c 0
 31 495 48 512 68 512 c 0
 75 512 81 513 87 513 c 1
 87 660 l 2
 87 728 96 777 116 814 c 0
 136 851 173 874 210 874 c 0
161 532 m 1
 220 561 260 623 260 705 c 0
 260 747 251 773 242 785 c 0
 233 797 225 800 210 800 c 0
 197 800 192 799 181 779 c 0
 170 759 161 721 161 660 c 2
 161 532 l 1
EndSplineSet
EndChar

StartChar: yoyo_ooze
Encoding: 1114122 -1 54
Width: 0
VWidth: 0
Flags: M
LayerCount: 2
Fore
SplineSet
508 722 m 0
 508 624 416 506 336 463 c 1
 336 259 l 1
 365 331 401 404 447 454 c 0
 478 487 515 512 560 512 c 0
 642 512 708 447 753 359 c 0
 798 271 824 153 824 25 c 0
 824 5 807 -12 787 -12 c 0
 767 -12 750 5 750 25 c 0
 750 143 725 251 687 326 c 0
 649 401 601 438 560 438 c 0
 543 438 524 428 501 404 c 0
 478 380 455 342 434 299 c 0
 392 212 357 101 334 15 c 0
 330 -1 316 -12 299 -12 c 0
 279 -12 262 5 262 25 c 2
 262 439 l 1
 256 438 248 438 242 438 c 0
 222 438 206 455 206 475 c 0
 206 495 222 512 242 512 c 0
 248 512 256 513 262 514 c 1
 262 660 l 2
 262 728 270 777 290 814 c 0
 310 851 348 874 385 874 c 0
 463 874 508 805 508 722 c 0
385 800 m 0
 372 800 366 799 355 779 c 0
 344 759 336 721 336 660 c 2
 336 553 l 1
 349 564 361 577 373 591 c 0
 411 637 434 697 434 722 c 0
 434 754 426 774 417 785 c 0
 408 796 399 800 385 800 c 0
EndSplineSet
Validated: 1
EndChar

StartChar: zero
Encoding: 48 48 55
Width: 640
Flags: HMW
LayerCount: 2
Fore
SplineSet
320 874 m 0
 404 874 474 823 515 744 c 0
 556 665 576 558 576 431 c 0
 576 304 556 198 515 119 c 0
 474 40 404 -12 320 -12 c 0
 236 -12 166 40 125 119 c 0
 84 198 64 304 64 431 c 0
 64 558 84 665 125 744 c 0
 166 823 236 874 320 874 c 0
320 800 m 0
 264 800 223 772 190 709 c 0
 157 646 138 550 138 431 c 0
 138 312 157 216 190 153 c 0
 223 90 264 62 320 62 c 0
 376 62 416 90 449 153 c 0
 482 216 502 312 502 431 c 0
 502 550 482 646 449 709 c 0
 416 772 376 800 320 800 c 0
EndSplineSet
EndChar

StartChar: zhivago
Encoding: 58973 58973 56
Width: 533
Flags: MW
LayerCount: 2
Fore
SplineSet
143 438 m 0
 123 438 106 454 106 475 c 0
 106 494 120 510 139 512 c 0
 191 517 211 518 253 518 c 0
 355 518 417 467 445 410 c 0
 471 358 472 303 472 274 c 0
 472 272 472 270 472 268 c 0
 472 206 455 135 428 62 c 1
 432 62 437 62 441 62 c 0
 461 62 478 45 478 25 c 0
 478 5 461 -12 441 -12 c 0
 426 -12 412 -12 397 -13 c 1
 354 -110 289 -224 233 -295 c 0
 216 -316 201 -334 185 -348 c 0
 169 -362 155 -374 128 -374 c 0
 108 -374 91 -370 77 -362 c 0
 63 -354 57 -346 52 -341 c 0
 33 -323 35 -310 33 -295 c 0
 32 -287 31 -279 31 -269 c 0
 31 -217 40 -173 66 -128 c 0
 133 -12 240 37 345 54 c 1
 377 134 398 213 398 268 c 0
 398 365 375 444 253 444 c 0
 212 444 197 443 147 438 c 0
 146 438 144 438 143 438 c 0
309 -28 m 1
 219 -53 105 -131 105 -268 c 0
 105 -278 106 -288 109 -293 c 0
 111 -295 115 -299 115 -299 c 1
 115 -299 116 -300 124 -300 c 1
 123 -300 129 -298 136 -292 c 0
 146 -283 160 -268 175 -249 c 0
 216 -197 273 -104 309 -28 c 1
EndSplineSet
EndChar

StartChar: zoos
Encoding: 58971 58971 57
Width: 488
Flags: MW
LayerCount: 2
Fore
SplineSet
68 427 m 0
 48 427 31 442 31 464 c 0
 31 481 43 496 59 500 c 0
 85 506 114 512 164 512 c 0
 205 512 249 501 284 470 c 0
 319 439 340 388 340 323 c 0
 340 233 288 148 239 62 c 0
 187 -29 140 -113 140 -197 c 0
 140 -249 151 -300 199 -300 c 0
 213 -300 227 -294 244 -278 c 0
 261 -262 280 -237 297 -205 c 0
 331 -141 360 -52 383 35 c 0
 387 51 402 62 419 62 c 0
 441 62 456 45 456 25 c 0
 456 22 456 18 455 15 c 0
 431 -75 401 -167 362 -240 c 0
 343 -277 321 -309 295 -333 c 0
 269 -357 236 -374 199 -374 c 0
 109 -374 66 -291 66 -199 c 0
 66 -86 122 5 174 98 c 0
 223 184 266 265 266 323 c 0
 266 374 252 399 235 415 c 0
 218 431 193 438 164 438 c 0
 118 438 100 434 76 428 c 0
 73 427 71 427 68 427 c 0
EndSplineSet
EndChar

